# xmcd
#
# Track frame offsets:
#	150
#	15035
#	27475
#	42786
#	57926
#	68564
#	81375
#	95485
#	109865
#	123599
#	132966
#	147563
#	160991
#	184189
#	195583
#	212993
#	237100
#	247894
#
# Disc length: 3546 seconds
#
# Revision: 0
# Processed by: cddbd v1.5.2PL0 Copyright (c) Steve Scherf et al.
# Submitted via: EasyCDDAExtractor 16.0.6.1
#
DISCID=f90dd812
DTITLE=Συλλογικός δίσκος - Τα μελοποιημένα 01
DYEAR=2010
DGENRE=Έντεχνη
TTITLE0=Καράλης Κώστας - Ιδανικός κι ανάξιος εραστής [Γ. Σπανός-Ν. Καββαδίας]
TTITLE1=Μητσιάς Μανώλης - Μη χτυπάς σ' ένα σπίτι κλειστό [Λ. Κηλαηδόνης-Μ. Ελε
TTITLE1=υθερίου]
TTITLE2=Πουλόπουλος Γιάννης - Το άγαλμα [Μ. Πλέσσας-Λ. Παπαδόπουλος]
TTITLE3=Φαραντούρη Μαρία - Της αγάπης αίματα [Μ. Θεοδωράκης-Ο. Ελύτης]
TTITLE4=Ζωγράφος Γιώργος - Ποιός είδε την αγάπη μου [Ν. Μαυρουδής-Γ. Κακουλίδη
TTITLE4=ς]
TTITLE5=Αρλέτα - Το λέει και το τραγούδι [Γ. Σπανός-Λιλή Ιακωβίδη]
TTITLE6=Γιαννάτου Σαβίνα - Βράδυ [Λ. Πλάτωνος-Κ. Καρυωτάκης]
TTITLE7=Καλογιάννης Αντώνης - Είχες θάλασσες στα μάτια [Ηλ. Ανδριόπουλος-Μιχ. 
TTITLE7=Μπουρμπούλης]
TTITLE8=Αστεριάδη Πόπη - Έρωτας τάχα [Γ. Σπανός-Μυρτιώτισσα]
TTITLE9=Βιτάλη Ελένη-Καμένος Κώστας - Το κυκλάμινο [Μ. Θεοδωράκης-Γ. Ρίτσος]
TTITLE10=Ξυδούς Μάνος-Γερασιμίδου Μαριάννα - Για σένα στις επιθυμίες μου [Κ. Π
TTITLE10=αρίσης-Κική Δημουλά]
TTITLE11=Κανά Μελίνα - Σ' είχα κι έφεγγα [Ν. Μαμαγκάκης-Μιχ. Γκανάς]
TTITLE12=Παπάζογλου Νίκος - Η παρέα [Γ. Σφυρίδης-Γιάννης Σκαρίμπας]
TTITLE13=Φαραντούρη Μαρία - Λίγο ακόμα [Μ. Θεοδωράκης-Γ. Σεφέρης]
TTITLE14=Ανδρεάτος Γεράσιμος - Οι γυναίκες οι παλιές [Χρ. Νικολόπουλος-Θοδωρής
TTITLE14=Γκόνης]
TTITLE15=Κωνσταντόπουλος Αλκιβιάδης-Γιασεμή Αλίκη - Σ' ένα νέο που αυτοκτόνησε
TTITLE15=[Οδ. Κωνσταντόπουλος-Μ. Πολυδούρη]
TTITLE16=Χριστογιαννόπουλος Τάσης-χορωδία - Αλλά ευτυχής ή δύστηνος [Η. Ανδριό
TTITLE16=πουλος-Ανδρέας Κάλβος]
TTITLE17=Άβατον - Γαία [Παν. Ξυδιάς-Αριστομένης Τσολάκης Επίκουρος]
EXTD=
EXTT0=
EXTT1=
EXTT2=
EXTT3=
EXTT4=
EXTT5=
EXTT6=
EXTT7=
EXTT8=
EXTT9=
EXTT10=
EXTT11=
EXTT12=
EXTT13=
EXTT14=
EXTT15=
EXTT16=
EXTT17=
PLAYORDER=
